<svg width="334" height="51" viewBox="0 0 334 51" fill="none" xmlns="http://www.w3.org/2000/svg">
<path d="M0 30C0 18.9543 8.95431 10 20 10C31.0457 10 40 18.9543 40 30C40 41.0457 31.0457 50 20 50C8.95431 50 0 41.0457 0 30Z" fill="#CD486B"/>
<mask id="mask0_1_295" style="mask-type:alpha" maskUnits="userSpaceOnUse" x="8" y="18" width="24" height="24">
<path d="M8.95001 18.9849H31.015V41.047H8.95001V18.9849Z" fill="white"/>
</mask>
<g mask="url(#mask0_1_295)">
<path fill-rule="evenodd" clip-rule="evenodd" d="M19.9826 18.9849C16.9863 18.9849 16.6106 18.9975 15.4339 19.0513C14.2595 19.1049 13.4575 19.2914 12.7559 19.5641C12.0303 19.846 11.4151 20.2232 10.8017 20.8366C10.1884 21.4499 9.81114 22.0652 9.52925 22.7907C9.25641 23.4925 9.06994 24.2945 9.01641 25.4688C8.96268 26.6455 8.95001 27.0211 8.95001 30.0174C8.95001 33.0138 8.96268 33.3894 9.01641 34.5661C9.06994 35.7404 9.25641 36.5424 9.52925 37.2442C9.81114 37.9697 10.1884 38.585 10.8017 39.1983C11.4151 39.8117 12.0303 40.1889 12.7559 40.4709C13.4575 40.7435 14.2595 40.93 15.4339 40.9837C16.6106 41.0373 16.9863 41.05 19.9826 41.05C22.9788 41.05 23.3546 41.0373 24.5313 40.9837C25.7056 40.93 26.5076 40.7435 27.2093 40.4709C27.9348 40.1889 28.55 39.8117 29.1634 39.1983C29.7767 38.585 30.154 37.9697 30.4359 37.2442C30.7087 36.5424 30.8952 35.7404 30.9487 34.5661C31.0025 33.3894 31.0151 33.0138 31.0151 30.0174C31.0151 27.0211 31.0025 26.6455 30.9487 25.4688C30.8952 24.2945 30.7087 23.4925 30.4359 22.7907C30.154 22.0652 29.7767 21.4499 29.1634 20.8366C28.55 20.2232 27.9348 19.846 27.2093 19.5641C26.5076 19.2914 25.7056 19.1049 24.5313 19.0513C23.3546 18.9975 22.9788 18.9849 19.9826 18.9849ZM19.9826 20.9727C22.9284 20.9727 23.2772 20.9839 24.4407 21.037C25.5163 21.0861 26.1005 21.2659 26.4892 21.4169C27.0043 21.617 27.3718 21.8561 27.7578 22.2422C28.1439 22.6283 28.383 22.9957 28.5831 23.5107C28.7341 23.8995 28.9139 24.4837 28.963 25.5593C29.016 26.7227 29.0273 27.0716 29.0273 30.0174C29.0273 32.9633 29.016 33.3122 28.963 34.4755C28.9139 35.5512 28.7341 36.1354 28.5831 36.5242C28.383 37.0391 28.1439 37.4066 27.7578 37.7927C27.3718 38.1788 27.0043 38.4179 26.4892 38.618C26.1005 38.7691 25.5163 38.9489 24.4407 38.9978C23.2774 39.051 22.9286 39.0622 19.9826 39.0622C17.0365 39.0622 16.6877 39.051 15.5244 38.9978C14.4488 38.9489 13.8646 38.7691 13.4759 38.618C12.9609 38.4179 12.5934 38.1788 12.2073 37.7927C11.8213 37.4066 11.5822 37.0391 11.3821 36.5242C11.231 36.1354 11.0513 35.5512 11.0021 34.4755C10.9491 33.3122 10.9379 32.9633 10.9379 30.0174C10.9379 27.0716 10.9491 26.7227 11.0021 25.5593C11.0513 24.4837 11.231 23.8995 11.3821 23.5107C11.5822 22.9957 11.8213 22.6283 12.2073 22.2422C12.5934 21.8561 12.9609 21.617 13.4759 21.4169C13.8646 21.2659 14.4488 21.0861 15.5244 21.037C16.6879 20.9839 17.0367 20.9727 19.9826 20.9727Z" fill="white"/>
</g>
<path fill-rule="evenodd" clip-rule="evenodd" d="M19.9825 33.6949C17.9515 33.6949 16.305 32.0485 16.305 30.0174C16.305 27.9864 17.9515 26.3399 19.9825 26.3399C22.0136 26.3399 23.6601 27.9864 23.6601 30.0174C23.6601 32.0485 22.0136 33.6949 19.9825 33.6949ZM19.9825 24.3521C16.8537 24.3521 14.3172 26.8886 14.3172 30.0174C14.3172 33.1464 16.8537 35.6828 19.9825 35.6828C23.1114 35.6828 25.6479 33.1464 25.6479 30.0174C25.6479 26.8886 23.1114 24.3521 19.9825 24.3521Z" fill="white"/>
<path fill-rule="evenodd" clip-rule="evenodd" d="M27.1957 24.1281C27.1957 24.8593 26.603 25.452 25.8718 25.452C25.1406 25.452 24.5479 24.8593 24.5479 24.1281C24.5479 23.3969 25.1406 22.8042 25.8718 22.8042C26.603 22.8042 27.1957 23.3969 27.1957 24.1281Z" fill="white"/>
<path d="M48 30C48 18.9543 56.9543 10 68 10C79.0457 10 88 18.9543 88 30C88 41.0457 79.0457 50 68 50C56.9543 50 48 41.0457 48 30Z" fill="#007BB6"/>
<path fill-rule="evenodd" clip-rule="evenodd" d="M62.067 26.6001H57.8V39.025H62.067V26.6001Z" fill="white"/>
<path fill-rule="evenodd" clip-rule="evenodd" d="M62.1755 21.3696C62.1478 19.9962 61.2489 18.9502 59.7891 18.9502C58.3293 18.9502 57.375 19.9962 57.375 21.3696C57.375 22.7145 58.3011 23.7906 59.7337 23.7906H59.761C61.2489 23.7906 62.1755 22.7145 62.1755 21.3696Z" fill="white"/>
<path fill-rule="evenodd" clip-rule="evenodd" d="M78.2036 31.9378C78.2036 28.1214 76.0979 26.3452 73.2892 26.3452C71.023 26.3452 70.0084 27.5512 69.4419 28.3972V26.6373H65.1731C65.2294 27.8032 65.1731 39.0622 65.1731 39.0622H69.4419V32.1231C69.4419 31.7518 69.4696 31.3813 69.5825 31.1155C69.8909 30.3736 70.5933 29.6055 71.7725 29.6055C73.3177 29.6055 73.9353 30.7449 73.9353 32.4145V39.0618H78.2034L78.2036 31.9378Z" fill="white"/>
<path d="M96 30C96 18.9543 104.954 10 116 10C127.046 10 136 18.9543 136 30C136 41.0457 127.046 50 116 50C104.954 50 96 41.0457 96 30Z" fill="#4099FF"/>
<path d="M112.811 38.3798C120.127 38.3798 124.127 32.2384 124.127 26.9127C124.127 26.7382 124.124 26.5646 124.116 26.3917C124.893 25.8228 125.568 25.1129 126.1 24.3048C125.387 24.6257 124.62 24.8418 123.816 24.9393C124.637 24.4403 125.268 23.651 125.565 22.7101C124.797 23.1717 123.946 23.5072 123.039 23.6884C122.314 22.905 121.281 22.415 120.136 22.415C117.94 22.415 116.159 24.2199 116.159 26.4448C116.159 26.761 116.194 27.0687 116.262 27.3637C112.957 27.1952 110.026 25.5914 108.064 23.1529C107.723 23.7485 107.526 24.4403 107.526 25.1785C107.526 26.5768 108.228 27.8112 109.295 28.5333C108.643 28.5129 108.03 28.3314 107.494 28.0293C107.494 28.0462 107.494 28.0626 107.494 28.0807C107.494 30.0326 108.865 31.6622 110.684 32.0315C110.35 32.1238 109.999 32.1733 109.636 32.1733C109.38 32.1733 109.131 32.1478 108.888 32.1006C109.395 33.702 110.863 34.8673 112.603 34.8998C111.242 35.981 109.528 36.625 107.664 36.625C107.343 36.625 107.027 36.6065 106.715 36.5692C108.475 37.7125 110.565 38.3796 112.812 38.3796" fill="white"/>
</svg>
