<svg width="21" height="21" viewBox="0 0 21 21" fill="none" xmlns="http://www.w3.org/2000/svg">
<path d="M0 10C0 4.47715 4.47715 0 10 0H11C16.5228 0 21 4.47715 21 10V11C21 16.5228 16.5228 21 11 21H10C4.47715 21 0 16.5228 0 11V10Z" fill="#FC4945"/>
<path d="M13.8237 14H7.76807V13.1558L10.9673 9.60107C11.4412 9.06364 11.7671 8.62777 11.9448 8.29346C12.1268 7.95492 12.2178 7.60579 12.2178 7.24609C12.2178 6.76367 12.0718 6.368 11.7798 6.05908C11.4878 5.75016 11.0985 5.5957 10.6118 5.5957C10.0278 5.5957 9.57292 5.76286 9.24707 6.09717C8.92546 6.42725 8.76465 6.88851 8.76465 7.48096H7.59033C7.59033 6.63037 7.86328 5.94271 8.40918 5.41797C8.95931 4.89323 9.69352 4.63086 10.6118 4.63086C11.4709 4.63086 12.1501 4.85726 12.6494 5.31006C13.1488 5.75863 13.3984 6.35742 13.3984 7.10645C13.3984 8.01628 12.8187 9.09961 11.6592 10.3564L9.18359 13.0415H13.8237V14Z" fill="white"/>
</svg>
